<?xml version="1.0" encoding="utf-8"?>
<!-- Generator: Adobe Illustrator 21.0.0, SVG Export Plug-In . SVG Version: 6.00 Build 0)  -->
<svg version="1.1" id="Слой_1" xmlns="http://www.w3.org/2000/svg" xmlns:xlink="http://www.w3.org/1999/xlink" x="0px" y="0px"
	 viewBox="0 0 22 22" style="enable-background:new 0 0 22 22;" xml:space="preserve">
<style type="text/css">
	.st0{fill:none;}
</style>
<path class="st0" d="M8.3,18.4c0.7,1.1,1.4,1.9,2,2.2v-3.7H7.6C7.8,17.4,8.1,17.9,8.3,18.4z"/>
<path class="st0" d="M7.1,15.6h3.3v-3.9H6.4C6.5,13,6.7,14.4,7.1,15.6z"/>
<path class="st0" d="M8.3,3.6C8.1,4.1,7.8,4.6,7.6,5.1h2.8V1.4C9.8,1.8,9,2.5,8.3,3.6z"/>
<path class="st0" d="M16.9,10.3h3.9c-0.1-1.4-0.5-2.7-1.1-3.9h-3.4C16.7,7.6,16.9,9,16.9,10.3z"/>
<path class="st0" d="M6.4,10.3h3.9V6.4H7.1C6.7,7.6,6.5,9,6.4,10.3z"/>
<path class="st0" d="M7.2,2.9c0.3-0.5,0.7-1,1-1.4C6.6,2,5.2,2.8,4,4c-0.3,0.3-0.6,0.7-0.9,1h3C6.4,4.3,6.8,3.6,7.2,2.9z"/>
<path class="st0" d="M6.1,16.9h-3c0.3,0.4,0.6,0.7,0.9,1c1.2,1.2,2.6,2,4.2,2.5c-0.4-0.4-0.7-0.9-1-1.4C6.8,18.4,6.4,17.7,6.1,16.9z
	"/>
<path class="st0" d="M5.7,6.4H2.3c-0.6,1.2-1,2.5-1.1,3.9h3.9C5.1,9,5.3,7.6,5.7,6.4z"/>
<path class="st0" d="M5.1,11.7H1.1c0.1,1.4,0.5,2.7,1.1,3.9h3.4C5.3,14.4,5.1,13,5.1,11.7z"/>
<path class="st0" d="M14.8,19.1c-0.3,0.5-0.7,1-1,1.4c1.6-0.5,3-1.3,4.2-2.5c0.3-0.3,0.6-0.7,0.9-1h-3
	C15.6,17.7,15.2,18.4,14.8,19.1z"/>
<path class="st0" d="M16.3,15.6h3.4c0.6-1.2,1-2.5,1.1-3.9h-3.9C16.9,13,16.7,14.4,16.3,15.6z"/>
<path class="st0" d="M11.7,16.9v3.7c0.6-0.4,1.3-1.1,2-2.2c0.3-0.5,0.5-0.9,0.8-1.4H11.7z"/>
<path class="st0" d="M15.9,5.1h3c-0.3-0.4-0.6-0.7-0.9-1c-1.2-1.2-2.6-2-4.2-2.5c0.4,0.4,0.7,0.9,1,1.4C15.2,3.6,15.6,4.3,15.9,5.1z
	"/>
<path class="st0" d="M13.7,3.6c-0.7-1.1-1.4-1.9-2-2.2v3.7h2.8C14.2,4.6,13.9,4.1,13.7,3.6z"/>
<path class="st0" d="M14.9,15.6c0.4-1.2,0.6-2.6,0.7-3.9h-3.9v3.9H14.9z"/>
<path class="st0" d="M14.9,6.4h-3.3v3.9h3.9C15.5,9,15.3,7.6,14.9,6.4z"/>
<path class="st0" d="M2.4,6.6c-0.6,1.1-0.9,2.3-1,3.5h3.5c0.1-1.2,0.2-2.4,0.5-3.5H2.4z"/>
<path class="st0" d="M1.4,11.9c0.1,1.2,0.5,2.4,1,3.5h3c-0.3-1.1-0.5-2.3-0.5-3.5H1.4z"/>
<path class="st0" d="M11.9,6.6v3.5h3.5c-0.1-1.2-0.3-2.4-0.6-3.5H11.9z"/>
<path class="st0" d="M11.9,1.8v3h2.2c-0.2-0.4-0.4-0.8-0.6-1.1C12.9,2.7,12.3,2.1,11.9,1.8z"/>
<path class="st0" d="M11.9,11.9v3.5h2.9c0.3-1.1,0.5-2.3,0.6-3.5H11.9z"/>
<path class="st0" d="M10.1,20.2v-3H7.9c0.2,0.4,0.4,0.8,0.6,1.1C9.1,19.3,9.7,19.9,10.1,20.2z"/>
<path class="st0" d="M10.1,10.1V6.6H7.2c-0.3,1.1-0.5,2.3-0.6,3.5H10.1z"/>
<path class="st0" d="M10.1,15.4v-3.5H6.6c0.1,1.2,0.3,2.4,0.6,3.5H10.1z"/>
<path class="st0" d="M11.9,17.2v3c0.4-0.3,1-0.9,1.6-1.9c0.2-0.3,0.4-0.7,0.6-1.1H11.9z"/>
<path class="st0" d="M20.6,10.1c-0.1-1.2-0.5-2.4-1-3.5h-3c0.3,1.1,0.5,2.3,0.5,3.5H20.6z"/>
<path class="st0" d="M7.9,4.8h2.2v-3c-0.4,0.3-1,0.9-1.6,1.9C8.3,4.1,8.1,4.5,7.9,4.8z"/>
<path class="st0" d="M6,17.2H3.6c0.2,0.2,0.4,0.5,0.6,0.7h0c1,1,2.1,1.7,3.4,2.2c-0.2-0.3-0.4-0.5-0.6-0.8C6.6,18.6,6.3,17.9,6,17.2
	z"/>
<path class="st0" d="M16,4.8h2.4c-0.2-0.2-0.4-0.5-0.6-0.7c-1-1-2.1-1.7-3.4-2.2c0.2,0.3,0.4,0.5,0.6,0.8C15.4,3.4,15.7,4.1,16,4.8z
	"/>
<path class="st0" d="M4.2,4.2C4,4.4,3.8,4.6,3.6,4.8H6c0.3-0.7,0.6-1.4,1-2C7.2,2.5,7.4,2.2,7.6,2C6.3,2.4,5.1,3.2,4.2,4.2z"/>
<path class="st0" d="M17.8,17.8c0.2-0.2,0.4-0.4,0.6-0.7H16c-0.3,0.7-0.6,1.4-1,2c-0.2,0.3-0.4,0.6-0.6,0.8
	C15.7,19.6,16.9,18.8,17.8,17.8z"/>
<path class="st0" d="M19.6,15.4c0.6-1.1,0.9-2.3,1-3.5h-3.5c-0.1,1.2-0.2,2.4-0.5,3.5H19.6z"/>
<path d="M18.8,3.2c-2-2-4.7-3.2-7.6-3.2l0,0C11.1,0,11,0,11,0s-0.1,0-0.1,0l0,0C8,0,5.3,1.2,3.2,3.2C1.2,5.3,0,8.1,0,11
	c0,2.9,1.1,5.7,3.2,7.8c2,2,4.7,3.2,7.6,3.2l0,0c0.1,0,0.2,0,0.3,0l0,0c2.9,0,5.6-1.2,7.6-3.2c2.1-2.1,3.2-4.8,3.2-7.8
	C22,8.1,20.8,5.3,18.8,3.2z M2.9,4.9c0.3-0.4,0.6-0.7,0.9-1.1c1.2-1.2,2.7-2.1,4.3-2.6l0.7-0.2L8.4,1.7C8,2.1,7.7,2.5,7.4,3
	C7,3.7,6.6,4.4,6.3,5.1L6.3,5.3H2.7L2.9,4.9z M0.9,10.3c0.1-1.4,0.5-2.8,1.1-4l0.1-0.1H6L5.9,6.5C5.5,7.7,5.3,9,5.3,10.3l0,0.2H0.9
	L0.9,10.3z M2.1,15.7c-0.7-1.3-1-2.6-1.1-4l0-0.2h4.4l0,0.2c0.1,1.3,0.3,2.6,0.6,3.9L6,15.8H2.1L2.1,15.7z M8.2,20.7
	c-1.6-0.5-3.1-1.4-4.3-2.6c-0.3-0.3-0.6-0.7-0.9-1.1l-0.3-0.3h3.6l0.1,0.1c0.3,0.8,0.6,1.5,1,2.1c0.3,0.5,0.6,1,1,1.4l0.5,0.6
	L8.2,20.7z M10.6,21l-0.3-0.2c-0.7-0.5-1.4-1.3-2.1-2.3c-0.3-0.5-0.5-1-0.8-1.5l-0.1-0.3h3.3V21z M10.6,15.8H6.9l0-0.2
	c-0.4-1.3-0.6-2.6-0.7-4l0-0.2h4.4V15.8z M10.6,10.6H6.2l0-0.2c0.1-1.4,0.3-2.7,0.7-4l0-0.2h3.6V10.6z M10.6,5.3H7.2L7.4,5
	c0.2-0.5,0.5-1,0.8-1.5c0.6-1,1.4-1.8,2.1-2.3L10.6,1V5.3z M19.9,6.3c0.7,1.3,1,2.6,1.1,4l0,0.2h-4.4l0-0.2
	c-0.1-1.3-0.3-2.6-0.6-3.9L16,6.2h3.9L19.9,6.3z M13.8,1.3c1.6,0.5,3.1,1.4,4.3,2.6v0c0.3,0.3,0.6,0.7,0.9,1.1l0.3,0.3h-3.6
	l-0.1-0.1c-0.3-0.8-0.6-1.5-1-2.1c-0.3-0.5-0.6-1-1-1.4l-0.5-0.6L13.8,1.3z M11.4,1l0.3,0.2c0.7,0.5,1.4,1.3,2.1,2.3
	c0.3,0.5,0.5,1,0.8,1.5l0.1,0.3h-3.3V1z M11.4,6.2h3.6l0,0.2c0.4,1.3,0.6,2.6,0.7,4l0,0.2h-4.4V6.2z M11.4,11.5h4.4l0,0.2
	c-0.1,1.4-0.3,2.7-0.7,4l0,0.2h-3.6V11.5z M11.8,20.8L11.4,21v-4.3h3.3L14.6,17c-0.2,0.5-0.5,1-0.8,1.5
	C13.2,19.5,12.5,20.3,11.8,20.8z M19.1,17.1c-0.3,0.4-0.6,0.7-0.9,1.1c-1.2,1.2-2.7,2.1-4.3,2.6l-0.7,0.2l0.5-0.6
	c0.4-0.4,0.7-0.9,1-1.4c0.4-0.6,0.7-1.4,1-2.1l0.1-0.1h3.6L19.1,17.1z M21.1,11.7c-0.1,1.4-0.5,2.8-1.1,4l-0.1,0.1H16l0.1-0.3
	c0.4-1.2,0.6-2.6,0.6-3.9l0-0.2h4.4L21.1,11.7z"/>
</svg>
